# xmcd
#
# Track frame offsets: 
#        182
#        17455
#        32887
#        47170
#        70305
#        86200
#        103230
#        118452
#        136567
#        153262
#        168580
#        190157
#
# Disc length: 2760 seconds
#
# Revision: 6
# Processed by: cddbd v1.5.2PL0 Copyright (c) Steve Scherf et al.
# Submitted via: ExactAudioCopyFreeDBPlugin 1.0
#
DISCID=a30ac60c
DTITLE=Various Artist - Didn't It Blow Your Mind!:  Soul Hits of the 
DTITLE='70s [Rhino series]
DYEAR=1995
DGENRE=SMB
TTITLE0=Peter Brown - Dance with Me
TTITLE1=The O'Jays - Use Ta Be My Girl
TTITLE2=Rick James - You and I
TTITLE3=Cheryl Lynn - Got to Be Real
TTITLE4=Bobby Caldwell - What You Won't Do for Love
TTITLE5=Evelyn Champagne King - I Don't Know If It's Right
TTITLE6=Bell and James - Livin' it Up (Friday Night)
TTITLE7=Peaches and Herb - Reunited
TTITLE8=McFadden and Whitehead - Ain't No Stoppin' Us Now
TTITLE9=Raydio - You Can't Change That
TTITLE10=GQ - I Do Love You
TTITLE11=Ashford and Simpson - Found a Cure
EXTD=
EXTT0=
EXTT1=
EXTT2=
EXTT3=
EXTT4=
EXTT5=
EXTT6=
EXTT7=
EXTT8=
EXTT9=
EXTT10=
EXTT11=
PLAYORDER=
